HIERARCHY
ROOT Model
{
	OFFSET 0 0 0
	CHANNELS 6 Xposition Yposition Zposition Zrotation Xrotation Yrotation
	JOINT Model1
	{
		OFFSET 0 -2.25479 2.99384
		CHANNELS 3 Zrotation Xrotation Yrotation
		JOINT Model2
		{
			OFFSET 12.111 0 0
			CHANNELS 3 Zrotation Xrotation Yrotation
			JOINT Model3
			{
				OFFSET 11.5502 0 0
				CHANNELS 3 Zrotation Xrotation Yrotation
				JOINT Model4
				{
					OFFSET 11.781 0 0
					CHANNELS 3 Zrotation Xrotation Yrotation
					JOINT Model5
					{
						OFFSET 20.0601 0 0
						CHANNELS 3 Zrotation Xrotation Yrotation
						JOINT Model6
						{
							OFFSET 11.1962 0 0
							CHANNELS 3 Zrotation Xrotation Yrotation
							End Site
							{
								OFFSET 0 0 0
							}
						}
					}
					JOINT Model7
					{
						OFFSET 10.8223 0.417534 3.51114
						CHANNELS 3 Zrotation Xrotation Yrotation
						JOINT Model8
						{
							OFFSET -6.07944 0 0
							CHANNELS 3 Zrotation Xrotation Yrotation
							JOINT Model9
							{
								OFFSET -0.277405 10.39 -0.051239
								CHANNELS 3 Zrotation Xrotation Yrotation
								JOINT Model10
								{
									OFFSET -3.43909 -0.282043 1.86679
									CHANNELS 3 Zrotation Xrotation Yrotation
									JOINT Model11
									{
										OFFSET 13.0269 0 0
										CHANNELS 3 Zrotation Xrotation Yrotation
										JOINT Model12
										{
											OFFSET 10.8866 0 0
											CHANNELS 3 Zrotation Xrotation Yrotation
											JOINT Model13
											{
												OFFSET 16.7317 0 0
												CHANNELS 3 Zrotation Xrotation Yrotation
												JOINT Model14
												{
													OFFSET 11.8292 0 0
													CHANNELS 3 Zrotation Xrotation Yrotation
													JOINT Model15
													{
														OFFSET 4.82751 -3.73566 -0.836517
														CHANNELS 3 Zrotation Xrotation Yrotation
														JOINT Model16
														{
															OFFSET 3.75311 -0.0582886 -0.0186462
															CHANNELS 3 Zrotation Xrotation Yrotation
															JOINT Model17
															{
																OFFSET 2.88689 0.0192337 0.014801
																CHANNELS 3 Zrotation Xrotation Yrotation
																End Site
																{
																	OFFSET 0 0 0
																}
															}
														}
													}
													JOINT Model18
													{
														OFFSET 9.72197 -3.06458 0.23877
														CHANNELS 3 Zrotation Xrotation Yrotation
														JOINT Model19
														{
															OFFSET 4.61131 0 0
															CHANNELS 3 Zrotation Xrotation Yrotation
															JOINT Model20
															{
																OFFSET 2.8969 -7.62939e-006 0
																CHANNELS 3 Zrotation Xrotation Yrotation
																End Site
																{
																	OFFSET 0 0 0
																}
															}
														}
													}
													JOINT Model21
													{
														OFFSET 9.54431 -0.745064 0.588928
														CHANNELS 3 Zrotation Xrotation Yrotation
														JOINT Model22
														{
															OFFSET 5.33978 0 0
															CHANNELS 3 Zrotation Xrotation Yrotation
															JOINT Model23
															{
																OFFSET 3.03619 7.62939e-006 0
																CHANNELS 3 Zrotation Xrotation Yrotation
																End Site
																{
																	OFFSET 0 0 0
																}
															}
														}
													}
													JOINT Model24
													{
														OFFSET 9.47758 1.51286 0.485107
														CHANNELS 3 Zrotation Xrotation Yrotation
														JOINT Model25
														{
															OFFSET 4.96136 7.62939e-006 0
															CHANNELS 3 Zrotation Xrotation Yrotation
															JOINT Model26
															{
																OFFSET 2.51965 0 0
																CHANNELS 3 Zrotation Xrotation Yrotation
																End Site
																{
																	OFFSET 0 0 0
																}
															}
														}
													}
													JOINT Model27
													{
														OFFSET 9.34247 3.34117 -0.239288
														CHANNELS 3 Zrotation Xrotation Yrotation
														JOINT Model28
														{
															OFFSET 3.28259 2.28882e-005 0
															CHANNELS 3 Zrotation Xrotation Yrotation
															JOINT Model29
															{
																OFFSET 2.1292 0 0
																CHANNELS 3 Zrotation Xrotation Yrotation
																End Site
																{
																	OFFSET 0 0 0
																}
															}
														}
													}
												}
											}
										}
									}
								}
							}
						}
					}
					JOINT Model30
					{
						OFFSET 10.8223 0.4179 -3.51108
						CHANNELS 3 Zrotation Xrotation Yrotation
						JOINT Model31
						{
							OFFSET 6.07944 0 0
							CHANNELS 3 Zrotation Xrotation Yrotation
							JOINT Model32
							{
								OFFSET 0.277405 -10.39 0.051239
								CHANNELS 3 Zrotation Xrotation Yrotation
								JOINT Model33
								{
									OFFSET 3.43909 0.282043 -1.86679
									CHANNELS 3 Zrotation Xrotation Yrotation
									JOINT Model34
									{
										OFFSET -13.0269 0 0
										CHANNELS 3 Zrotation Xrotation Yrotation
										JOINT Model35
										{
											OFFSET -10.8866 0 0
											CHANNELS 3 Zrotation Xrotation Yrotation
											JOINT Model36
											{
												OFFSET -16.7317 0 0
												CHANNELS 3 Zrotation Xrotation Yrotation
												JOINT Model37
												{
													OFFSET -11.8292 0 0
													CHANNELS 3 Zrotation Xrotation Yrotation
													JOINT Model38
													{
														OFFSET -4.82751 3.73566 0.836517
														CHANNELS 3 Zrotation Xrotation Yrotation
														JOINT Model39
														{
															OFFSET -3.75311 0.0582886 0.0186462
															CHANNELS 3 Zrotation Xrotation Yrotation
															JOINT Model40
															{
																OFFSET -2.88687 -0.0192337 -0.014801
																CHANNELS 3 Zrotation Xrotation Yrotation
																End Site
																{
																	OFFSET 0 0 0
																}
															}
														}
													}
													JOINT Model41
													{
														OFFSET -9.72198 3.06459 -0.23877
														CHANNELS 3 Zrotation Xrotation Yrotation
														JOINT Model42
														{
															OFFSET -4.6113 0 0
															CHANNELS 3 Zrotation Xrotation Yrotation
															JOINT Model43
															{
																OFFSET -2.89691 0 0
																CHANNELS 3 Zrotation Xrotation Yrotation
																End Site
																{
																	OFFSET 0 0 0
																}
															}
														}
													}
													JOINT Model44
													{
														OFFSET -9.54431 0.745064 -0.588928
														CHANNELS 3 Zrotation Xrotation Yrotation
														JOINT Model45
														{
															OFFSET -5.33978 0 0
															CHANNELS 3 Zrotation Xrotation Yrotation
															JOINT Model46
															{
																OFFSET -3.03619 -1.52588e-005 0
																CHANNELS 3 Zrotation Xrotation Yrotation
																End Site
																{
																	OFFSET 0 0 0
																}
															}
														}
													}
													JOINT Model47
													{
														OFFSET -9.4776 -1.51286 -0.485107
														CHANNELS 3 Zrotation Xrotation Yrotation
														JOINT Model48
														{
															OFFSET -4.96136 -1.52588e-005 0
															CHANNELS 3 Zrotation Xrotation Yrotation
															JOINT Model49
															{
																OFFSET -2.51965 0 0
																CHANNELS 3 Zrotation Xrotation Yrotation
																End Site
																{
																	OFFSET 0 0 0
																}
															}
														}
													}
													JOINT Model50
													{
														OFFSET -9.34247 -3.34118 0.239288
														CHANNELS 3 Zrotation Xrotation Yrotation
														JOINT Model51
														{
															OFFSET -3.28259 -2.28882e-005 0
															CHANNELS 3 Zrotation Xrotation Yrotation
															JOINT Model52
															{
																OFFSET -2.12921 0 0
																CHANNELS 3 Zrotation Xrotation Yrotation
																End Site
																{
																	OFFSET 0 0 0
																}
															}
														}
													}
												}
											}
										}
									}
								}
							}
						}
					}
				}
			}
		}
	}
	JOINT Model53
	{
		OFFSET 4.38025 -2.14632 -1.11517
		CHANNELS 3 Zrotation Xrotation Yrotation
		JOINT Model54
		{
			OFFSET 0 0 4.94998
			CHANNELS 3 Zrotation Xrotation Yrotation
			JOINT Model55
			{
				OFFSET 18.5642 0 0
				CHANNELS 3 Zrotation Xrotation Yrotation
				JOINT Model56
				{
					OFFSET 21.2884 0 0
					CHANNELS 3 Zrotation Xrotation Yrotation
					JOINT Model57
					{
						OFFSET 30.261 0 0
						CHANNELS 3 Zrotation Xrotation Yrotation
						JOINT Model58
						{
							OFFSET 11.7259 0 0
							CHANNELS 3 Zrotation Xrotation Yrotation
							JOINT Model59
							{
								OFFSET 10.682 0 0
								CHANNELS 3 Zrotation Xrotation Yrotation
								End Site
								{
									OFFSET 0 0 0
								}
							}
						}
					}
				}
			}
		}
	}
	JOINT Model60
	{
		OFFSET -4.38025 -2.14632 -1.11517
		CHANNELS 3 Zrotation Xrotation Yrotation
		JOINT Model61
		{
			OFFSET 0 0 -4.94998
			CHANNELS 3 Zrotation Xrotation Yrotation
			JOINT Model62
			{
				OFFSET -18.5642 0 0
				CHANNELS 3 Zrotation Xrotation Yrotation
				JOINT Model63
				{
					OFFSET -21.2884 0 0
					CHANNELS 3 Zrotation Xrotation Yrotation
					JOINT Model64
					{
						OFFSET -30.261 0 0
						CHANNELS 3 Zrotation Xrotation Yrotation
						JOINT Model65
						{
							OFFSET -11.7259 0 0
							CHANNELS 3 Zrotation Xrotation Yrotation
							JOINT Model66
							{
								OFFSET -10.682 0 0
								CHANNELS 3 Zrotation Xrotation Yrotation
								End Site
								{
									OFFSET 0 0 0
								}
							}
						}
					}
				}
			}
		}
	}
}
MOTION
Frames: 4
Frame Time: 0.033333
-619.314 140.985 -704.625 48.438 -33.0316 61.8148 -180 4.29621e-031 -90 4.29645 0.239466 -1.28907 8.59726 0.381195 -2.59248 8.59726 0.381627 -2.59254 -1.29064 -5.92524 33.8181 -12.6008 5.64737 -19.3581 120.092 75.5343 58.4939 2.22157 28.8911 8.12088 -167.277 84.4999 48.8109 144.711 6.0585 -11.4329 -5.15072e-006 28.4583 3.40177e-005 -9.06667 1.95912 -8.20109 2.45598e-007 2.81808 1.1909e-007 -4.64952 -0.0347858 0.856847 -72.0648 39.0385 39.3397 33.3638 2.10362 14.835 0.588947 0.308273 6.35287 -99.6409 81.413 100.35 -0.0181409 2.77762e-005 -0.117315 -0.124139 0.00241112 -0.799296 -79.8382 79.5773 80.5374 -0.000225767 -0.000220925 2.22543e-005 -0.000956213 0.000122892 -2.72396e-005 -66.7416 80.4058 67.2171 -0.00043712 1.59431e-005 -2.72613e-005 -0.000136588 -0.000109294 -5.4561e-005 -6.42159 81.2158 8.01779 -0.000218548 1.68987e-005 0.000212202 0.000901609 -0.000184814 -0.000218482 -59.9282 75.5373 58.5147 29.0666 19.9173 -3.34808 -167.277 84.4999 48.8109 133.927 -15.9894 -49.0389 1.34834e-005 -12.6353 2.981e-005 -57.9098 -22.4782 0.559721 -4.04809e-006 -34.3907 3.76935e-006 13.6843 -3.17054 -25.9762 -72.0648 39.0385 39.3397 33.3638 2.10361 14.835 0.588946 0.308273 6.35287 -99.6409 81.413 100.35 -0.0181409 3.00662e-005 -0.117315 -0.124139 0.00241111 -0.799296 -79.8382 79.5773 80.5374 -0.000260644 -0.000218581 2.3516e-005 -0.000956223 0.000122977 -2.73944e-005 -66.7416 80.4058 67.2171 -0.000437131 1.48685e-005 -2.73763e-005 -0.000136603 -0.0001093 -5.47167e-005 -6.42159 81.2158 8.01779 -0.00021857 1.9579e-005 0.000212243 0.000901578 -0.000191245 -0.000218639 0.000811311 0.56661 89.91 -124.051 1.36503 -12.5184 3.23094e-007 -9.4552 -4.88718e-010 86.4477 9.02295 -0.00848025 -7.98358e-008 13.4121 -1.20668e-007 -67.9163 -1.70429 0.00249207 -35.4947 1.1789e-006 -7.65497e-007 -180 -0.566579 -90.09 -103.714 1.80012 -5.03725 -2.91075e-007 -0.145055 -6.48089e-009 121.928 -2.82162 -0.00653117 2.68439e-007 -4.33467 -3.14355e-007 -71.7483 -6.34557 2.10904 -66.2162 1.02764 -1.8271 
-616.847 140.27 -702.646 47.8929 -34.489 61.4672 -180 4.29621e-031 -90 4.20471 0.362655 -1.5136 8.4177 0.612802 -3.04979 8.4177 0.613235 -3.04985 -1.3591 -5.19474 32.7031 -11.395 5.77813 -18.6176 120.092 75.5343 58.4939 -0.488889 28.267 9.09465 -167.277 84.4999 48.8109 144.594 6.86519 -12.7474 -5.89074e-006 29.5427 3.43765e-005 -6.76674 1.00789 -8.13801 2.48487e-007 1.42821 1.18983e-007 -4.34451 -0.0289126 0.762233 -72.0648 39.0385 39.3397 33.3638 2.10362 14.835 0.588947 0.308273 6.35287 -99.6409 81.413 100.35 -0.0181409 2.77762e-005 -0.117315 -0.124139 0.00241112 -0.799296 -79.8382 79.5773 80.5374 -0.000225767 -0.000220925 2.22543e-005 -0.000956213 0.000122892 -2.72396e-005 -66.7416 80.4058 67.2171 -0.00043712 1.59431e-005 -2.72613e-005 -0.000136588 -0.000109294 -5.4561e-005 -6.42159 81.2158 8.01779 -0.000218548 1.68987e-005 0.000212202 0.000901609 -0.000184814 -0.000218482 -59.9282 75.5373 58.5147 29.1589 21.1542 -3.31377 -167.277 84.4999 48.8109 134.459 -16.3945 -49.6574 1.36191e-005 -12.8894 2.98399e-005 -57.7225 -23.5487 0.563099 -3.91753e-006 -35.9965 3.8446e-006 14.5497 -3.44231 -26.4913 -72.0648 39.0385 39.3397 33.3638 2.10361 14.835 0.588946 0.308273 6.35287 -99.6409 81.413 100.35 -0.0181409 3.00662e-005 -0.117315 -0.124139 0.00241111 -0.799296 -79.8382 79.5773 80.5374 -0.000260644 -0.000218581 2.3516e-005 -0.000956223 0.000122977 -2.73944e-005 -66.7416 80.4058 67.2171 -0.000437131 1.48685e-005 -2.73763e-005 -0.000136603 -0.0001093 -5.47167e-005 -6.42159 81.2158 8.01779 -0.00021857 1.9579e-005 0.000212243 0.000901578 -0.000191245 -0.000218639 0.000811311 0.56661 89.91 -124.726 0.978632 -11.0622 3.231e-007 -8.80327 -4.87825e-010 83.5138 8.71609 -0.00845525 -8.08293e-008 12.9523 -1.20442e-007 -65.2648 -0.183563 -0.720778 -35.4947 1.95788e-006 -3.56223e-006 -180 -0.566579 -90.09 -101.655 1.63044 -5.57819 -2.91121e-007 -0.549826 -6.48117e-009 123.357 -2.25622 -0.00652588 2.73111e-007 -3.48474 -3.14036e-007 -70.5178 -6.78258 2.45879 -70.9394 1.40545 -1.92761 
-613.994 139.44 -700.531 47.5043 -36.1744 61.0148 -180 4.29621e-031 -90 4.12751 0.427367 -1.78918 8.26657 0.724218 -3.60458 8.26657 0.724651 -3.60464 -1.35885 -4.35912 31.9385 -10.4316 6.11759 -17.7963 120.092 75.5343 58.4939 -3.62019 27.0746 10.0438 -167.277 84.4999 48.8109 144.055 7.59051 -13.8805 -6.47889e-006 30.3884 3.46703e-005 -4.38135 0.397804 -7.73418 2.50293e-007 0.558472 1.18951e-007 -4.17958 -0.0176068 0.482516 -72.0648 39.0385 39.3397 33.3638 2.10362 14.835 0.588947 0.308273 6.35287 -99.6409 81.413 100.35 -0.0181409 2.77762e-005 -0.117315 -0.124139 0.00241112 -0.799296 -79.8382 79.5773 80.5374 -0.000225767 -0.000220925 2.22543e-005 -0.000956213 0.000122892 -2.72396e-005 -66.7416 80.4058 67.2171 -0.00043712 1.59431e-005 -2.72613e-005 -0.000136588 -0.000109294 -5.4561e-005 -6.42159 81.2158 8.01779 -0.000218548 1.68987e-005 0.000212202 0.000901609 -0.000184814 -0.000218482 -59.9282 75.5373 58.5147 29.3586 22.2837 -3.32371 -167.277 84.4999 48.8109 134.893 -16.7331 -49.8346 1.37068e-005 -13.0534 2.98596e-005 -57.8305 -24.7065 0.568968 -3.77019e-006 -37.7334 3.933e-006 15.3585 -3.66987 -26.7309 -72.0648 39.0385 39.3397 33.3638 2.10361 14.835 0.588946 0.308273 6.35287 -99.6409 81.413 100.35 -0.0181409 3.00662e-005 -0.117315 -0.124139 0.00241111 -0.799296 -79.8382 79.5773 80.5374 -0.000260644 -0.000218581 2.3516e-005 -0.000956223 0.000122977 -2.73944e-005 -66.7416 80.4058 67.2171 -0.000437131 1.48685e-005 -2.73763e-005 -0.000136603 -0.0001093 -5.47167e-005 -6.42159 81.2158 8.01779 -0.00021857 1.9579e-005 0.000212243 0.000901578 -0.000191245 -0.000218639 0.000811311 0.56661 89.91 -125.626 1.26672 -9.321 3.23116e-007 -6.87771 -4.85572e-010 85.565 7.45106 -0.00841804 -8.48937e-008 11.0544 -1.19596e-007 -62.1456 1.68688 -1.73847 -35.4947 2.73612e-006 -7.03575e-006 -180 -0.566579 -90.09 -98.9947 1.73509 -6.14158 -2.91112e-007 -0.470034 -6.48109e-009 124.692 -1.58641 -0.00652272 2.78632e-007 -2.47825 -3.13749e-007 -68.5127 -7.70619 3.16993 -76.7351 1.67686 -2.11826 
-611.009 138.75 -698.277 47.0959 -37.6234 60.5691 -180 4.29621e-031 -90 4.06508 0.443776 -2.06208 8.14371 0.739557 -4.15057 8.14371 0.73999 -4.15063 -1.80298 -3.77065 31.5167 -9.77017 6.45578 -16.8222 120.092 75.5343 58.4939 -5.56248 25.3881 10.2779 -167.277 84.4999 48.8109 142.862 7.8667 -13.4262 -6.54802e-006 30.4868 3.47053e-005 -2.53832 0.0228219 -7.76771 2.51383e-007 0.0336034 1.18946e-007 -4.09701 -0.0113667 0.317793 -72.0648 39.0385 39.3397 33.3638 2.10362 14.835 0.588947 0.308273 6.35287 -99.6409 81.413 100.35 -0.0181409 2.77762e-005 -0.117315 -0.124139 0.00241112 -0.799296 -79.8382 79.5773 80.5374 -0.000225767 -0.000220925 2.22543e-005 -0.000956213 0.000122892 -2.72396e-005 -66.7416 80.4058 67.2171 -0.00043712 1.59431e-005 -2.72613e-005 -0.000136588 -0.000109294 -5.4561e-005 -6.42159 81.2158 8.01779 -0.000218548 1.68987e-005 0.000212202 0.000901609 -0.000184814 -0.000218482 -59.9282 75.5373 58.5147 29.6248 22.5769 -3.40101 -167.277 84.4999 48.8109 135.049 -16.8002 -49.5041 1.36678e-005 -12.9806 2.98509e-005 -57.8808 -25.3743 0.572435 -3.68204e-006 -38.7351 3.98756e-006 15.4138 -3.6656 -26.6073 -72.0648 39.0385 39.3397 33.3638 2.10361 14.835 0.588946 0.308273 6.35287 -99.6409 81.413 100.35 -0.0181409 3.00662e-005 -0.117315 -0.124139 0.00241111 -0.799296 -79.8382 79.5773 80.5374 -0.000260644 -0.000218581 2.3516e-005 -0.000956223 0.000122977 -2.73944e-005 -66.7416 80.4058 67.2171 -0.000437131 1.48685e-005 -2.73763e-005 -0.000136603 -0.0001093 -5.47167e-005 -6.42159 81.2158 8.01779 -0.00021857 1.9579e-005 0.000212243 0.000901578 -0.000191245 -0.000218639 0.000811311 0.56661 89.91 -126.269 1.65908 -7.65481 3.23134e-007 -4.77827 -4.8376e-010 89.9726 5.99561 -0.00842647 -8.95055e-008 8.87087 -1.18798e-007 -59.7547 3.96345 -3.15052 -35.4947 3.38226e-006 -1.01937e-005 -180 -0.566579 -90.09 -95.8781 1.98461 -6.51862 -2.91058e-007 0.000590812 -6.48087e-009 125.391 -1.01459 -0.00652251 2.83336e-007 -1.61957 -3.13581e-007 -65.5744 -9.04687 4.28799 -83.4617 1.61158 -2.66414 
